<?xml version="1.0" standalone="no"?>
<svg xmlns="http://www.w3.org/2000/svg" viewBox="0 0 1734 1344" width="500" height="387">
<rect width="1734" height="1344" fill="#ffffff"/>
<g transform="translate(0,1344) scale(0.1,-0.1)" fill="#000000" stroke="none">
<path d="M8015 12433 c-718 -38 -1423 -224 -2080 -548 -539 -266 -990 -589
-1415 -1015 -422 -421 -741 -865 -1008 -1400 -372 -745 -562 -1550 -562 -2385
0 -1168 377 -2293 1081 -3225 385 -509 854 -944 1389 -1286 646 -414 1362
-680 2122 -788 245 -35 370 -46 638 -53 1105 -28 2185 287 3113 908 567 380
1070 883 1455 1455 137 203 238 378 357 619 259 522 417 1033 499 1607 36 251
46 373 53 648 21 869 -164 1702 -552 2485 -268 542 -586 985 -1010 1410 -429
431 -875 750 -1420 1020 -647 320 -1320 500 -2040 545 -147 9 -474 11 -620 3z
m815 -228 c1047 -114 1981 -511 2790 -1184 151 -125 500 -474 626 -626 642
-773 1040 -1682 1164 -2660 57 -453 52 -951 -15 -1410 -134 -923 -534 -1809
-1149 -2550 -128 -153 -477 -502 -626 -626 -338 -281 -663 -493 -1047 -682
-514 -253 -1050 -414 -1618 -487 -448 -57 -954 -52 -1414 16 -925 134 -1799
530 -2551 1153 -148 122 -498 473 -621 621 -792 954 -1209 2097 -1209 3315 0
1347 521 2626 1460 3589 423 432 852 746 1390 1015 605 302 1241 477 1925 530
176 14 722 5 895 -14z"/>
<path d="M9179 11990 c-20 -11 -56 -41 -79 -67 -36 -41 -557 -893 -700 -1145
-91 -159 -114 -280 -67 -349 55 -82 143 -73 237 24 51 52 738 1188 770 1273
28 74 37 173 20 214 -28 68 -106 90 -181 50z"/>
<path d="M10165 11082 c-68 -42 -132 -138 -176 -265 l-29 -82 0 -3433 c0
-3049 2 -3436 15 -3462 15 -29 60 -60 87 -60 74 0 185 90 236 192 67 131 62
-136 62 3276 0 1706 4 3102 8 3102 15 0 204 -130 317 -219 138 -108 389 -352
510 -496 640 -763 1003 -1712 1054 -2759 35 -709 -118 -1341 -447 -1841 -367
-559 -907 -1008 -1657 -1379 -394 -195 -738 -330 -1025 -401 -58 -14 -122 -33
-143 -42 -51 -22 -110 -91 -152 -177 -87 -178 -86 -326 2 -363 37 -15 43 -14
188 22 649 160 1324 483 1890 905 370 275 715 613 966 946 438 579 700 1276
774 2056 18 194 21 611 5 798 -78 925 -394 1783 -914 2478 -365 487 -865 928
-1305 1151 -156 78 -207 89 -266 53z"/>
<path d="M6126 10964 c-478 -74 -842 -341 -1070 -783 -125 -245 -185 -467
-193 -721 -19 -586 243 -1187 1175 -2695 439 -709 607 -994 796 -1351 293
-555 441 -969 477 -1342 19 -192 -13 -423 -71 -517 -25 -40 -92 -69 -201 -86
-301 -47 -755 206 -1240 690 -357 358 -671 785 -998 1359 -29 50 -62 97 -73
103 -41 22 -88 1 -158 -69 -110 -111 -192 -302 -174 -406 15 -93 359 -644 597
-956 333 -437 699 -797 1050 -1031 426 -283 826 -344 1134 -174 92 51 232 194
296 301 167 282 247 646 234 1064 -6 201 -20 292 -73 500 -118 454 -338 936
-709 1555 -56 94 -231 377 -390 630 -928 1482 -1213 2054 -1266 2539 -36 323
85 564 349 699 167 85 295 116 524 124 187 6 309 -5 456 -43 51 -13 106 -24
123 -24 75 0 175 88 239 211 80 155 85 305 11 343 -38 20 -220 64 -336 81
-124 18 -387 18 -509 -1z"/>
<path d="M8273 10039 c-78 -38 -150 -135 -195 -259 l-23 -65 -3 -3459 c-1
-2451 1 -3470 9 -3498 15 -59 49 -88 100 -88 90 0 180 74 239 194 65 134 60
-165 60 3641 0 3274 -1 3462 -18 3495 -30 61 -94 76 -169 39z"/>
</g>
</svg>
